#!OML:ASF X:\für Bonn\!DataBase\2005_08_12_Daniel\c3d\Daniel.ASF
:FULLY-SPECIFIED
:DEGREES
47
root 3.77357 15.9697 -6.75817 -1085.58 30.5515 7.34835
lowerback 39.5031 -3.51458 -1.42431
upperback 13.8482 -4.43927 -3.28655
thorax -3.92539 -1.78102 -1.14176
lowerneck 4.24236 2.05067 -5.87834
upperneck 14.6688 2.53114 2.51857
head 3.96718 1.06668 1.92608
rclavicle -1.15295e-014 4.17448e-015
rhumerus -30.7793 -3.28122 -85.7511
rradius 34.0043
rwrist 10.7445
rhand -16.2415 -342.645
rfingers 7.12502
rthumb 9.9672 -372.389
lclavicle -1.15295e-014 4.17448e-015
lhumerus -731.757 1.62071 -641.776
lradius 50.0089
lwrist -7.20606
lhand -16.1957 353.656
lfingers 7.12502
lthumb 10.0114 383.397
rfemur 326.308 -12.8175 376.525
rtibia 37.1652
rfoot -14.9797 -17.1335
rtoes 23.5314
lfemur 4.69178 12.2923 -16.772
ltibia 51.9868
lfoot -31.4719 -9.90379
ltoes -3.27512
48
root 3.82718 15.9154 -6.66633 -1085.81 30.2147 6.91519
lowerback 40.1614 -3.73647 -0.868449
upperback 13.8863 -4.50266 -3.23934
thorax -4.11978 -1.78699 -1.33528
lowerneck 3.95564 2.04621 -5.77256
upperneck 14.6974 2.56819 2.2688
head 4.03249 1.08008 1.82892
rclavicle 6.55989e-015 2.127e-014
rhumerus -30.5796 -2.87876 -85.8487
rradius 33.994
rwrist 10.5984
rhand -16.2691 -342.599
rfingers 7.12502
rthumb 9.9405 -372.345
lclavicle 6.55989e-015 2.127e-014
lhumerus -731.793 1.18366 -641.841
lradius 50.499
lwrist -7.05335
lhand -16.1844 353.802
lfingers 7.12502
lthumb 10.0223 383.543
rfemur 325.605 -13.1837 377.125
rtibia 38.584
rfoot -14.19 -16.8083
rtoes 23.2027
lfemur 4.09187 12.5598 -16.0347
ltibia 53.9199
lfoot -30.8565 -10.2959
ltoes -3.47013
49
root 3.87821 15.8565 -6.57436 -1086.05 29.8713 6.44688
lowerback 40.9171 -3.96068 -0.322843
upperback 13.8813 -4.56378 -3.16939
thorax -4.38233 -1.79304 -1.49504
lowerneck 3.68095 2.05024 -5.65875
upperneck 14.7317 2.61923 1.98862
head 4.09792 1.09908 1.72028
rclavicle 4.57205e-015 -2.00773e-014
rhumerus -30.363 -2.3447 -85.9306
rradius 33.9195
rwrist 10.4547
rhand -16.3676 -342.551
rfingers 7.12502
rthumb 9.84555 -372.301
lclavicle 4.57205e-015 -2.00773e-014
lhumerus -731.879 0.812256 -641.877
lradius 50.9879
lwrist -6.92812
lhand -16.1835 353.925
lfingers 7.12502
lthumb 10.0231 383.666
rfemur 324.874 -13.61 377.787
rtibia 40.017
rfoot -13.4341 -16.4324
rtoes 22.2408
lfemur 3.29643 12.9192 -15.1464
ltibia 56.1365
lfoot -29.972 -10.8019
ltoes -3.73972
50
root 3.92761 15.7907 -6.48317 -1086.31 29.4851 5.94401
lowerback 41.73 -4.18262 0.238376
upperback 13.8631 -4.60653 -3.10896
thorax -4.67022 -1.78989 -1.67633
lowerneck 3.40494 2.05804 -5.47989
upperneck 14.751 2.67621 1.69456
head 4.15893 1.12355 1.59543
rclavicle 5.9039e-014 -1.17283e-014
rhumerus -30.0497 -1.71084 -86.0179
rradius 33.781
rwrist 10.3387
rhand -16.485 -342.535
rfingers 7.12502
rthumb 9.73225 -372.29
lclavicle 5.9039e-014 -1.17283e-014
lhumerus -731.934 0.446642 -641.917
lradius 51.4297
lwrist -6.81316
lhand -16.24 354.062
lfingers 7.12502
lthumb 9.96862 383.806
rfemur 324.126 -14.0033 378.51
rtibia 41.4616
rfoot -12.7935 -16.0397
rtoes 20.7295
lfemur 2.32841 13.3798 -14.1327
ltibia 58.5715
lfoot -28.8546 -11.3516
ltoes -4.10423
51
root 3.97499 15.7272 -6.39222 -1086.49 29.1004 5.42464
lowerback 42.5297 -4.40649 0.771416
upperback 13.8063 -4.65283 -3.03264
thorax -4.9864 -1.79227 -1.82305
lowerneck 3.24322 2.08784 -5.30102
upperneck 14.7174 2.75167 1.42304
head 4.17853 1.15834 1.47567
rclavicle -1.19271e-014 -2.76311e-014
rhumerus -29.7475 -1.04389 -86.08
rradius 33.6445
rwrist 10.3114
rhand -16.5798 -342.492
rfingers 7.12502
rthumb 9.64079 -372.251
lclavicle -1.19271e-014 -2.76311e-014
lhumerus -731.948 0.210839 -641.921
lradius 51.7995
lwrist -6.76841
lhand -16.3292 354.157
lfingers 7.12502
lthumb 9.88256 383.905
rfemur 323.332 -14.2739 379.23
rtibia 42.8915
rfoot -12.2841 -15.6708
rtoes 19.1833
lfemur 1.10751 13.7455 -13.1908
ltibia 61.1357
lfoot -27.649 -11.6145
ltoes -4.836
52
root 4.02076 15.6666 -6.3014 -1086.65 28.6733 4.91722
lowerback 43.3596 -4.59511 1.25729
upperback 13.7374 -4.66423 -2.95363
thorax -5.31189 -1.78075 -1.95451
lowerneck 3.10709 2.12796 -5.10923
upperneck 14.6625 2.8337 1.19211
head 4.18545 1.19875 1.36702
rclavicle 1.78906e-014 -4.69132e-014
rhumerus -29.4506 -0.360619 -86.1466
rradius 33.5348
rwrist 10.2928
rhand -16.7375 -342.461
rfingers 7.12502
rthumb 9.48863 -372.227
lclavicle 1.78906e-014 -4.69132e-014
lhumerus -731.932 -0.019391 -641.906
lradius 52.1035
lwrist -6.7761
lhand -16.4835 354.146
lfingers 7.12502
lthumb 9.73369 383.901
rfemur 322.572 -14.4752 379.934
rtibia 44.2766
rfoot -11.9019 -15.2611
rtoes 17.894
lfemur -0.216761 14.0529 -12.3126
ltibia 63.7513
lfoot -26.3415 -11.6032
ltoes -5.94379
53
root 4.06587 15.6129 -6.21094 -1086.79 28.2418 4.41075
lowerback 44.1689 -4.77653 1.71876
upperback 13.6739 -4.66719 -2.87925
thorax -5.6165 -1.76709 -2.08208
lowerneck 3.01633 2.17494 -4.87806
upperneck 14.5851 2.91821 0.984427
head 4.17593 1.24353 1.25845
rclavicle 2.50469e-014 -2.88238e-014
rhumerus -29.1349 0.18436 -86.1946
rradius 33.4599
rwrist 10.51
rhand -16.8449 -342.468
rfingers 7.12502
rthumb 9.38499 -372.239
lclavicle 2.50469e-014 -2.88238e-014
lhumerus -731.852 -0.163704 -641.864
lradius 52.315
lwrist -6.81409
lhand -16.6913 354.052
lfingers 7.12502
lthumb 9.5332 383.816
rfemur 321.844 -14.6552 380.639
rtibia 45.6043
rfoot -11.5266 -14.8696
rtoes 16.6062
lfemur -1.63933 14.2138 -11.5444
ltibia 66.3605
lfoot -24.5928 -11.3588
ltoes -7.10846
